# Blender v2.78 (sub 0) OBJ File: ''
# www.blender.org
mtllib argon.mtl
o Cube.001
v -2.603191 0.253407 -2.603190
v -2.603191 0.253407 2.603191
v 2.603191 0.253407 2.603190
v 2.603190 0.253407 -2.603192
v -2.603192 -0.253407 -2.603189
v 2.603190 -0.253407 -2.603191
v 2.603192 -0.253407 2.603190
v -2.603189 -0.253407 2.603192
vn 0.0000 1.0000 0.0000
vn -0.0000 -1.0000 -0.0000
vn -1.0000 -0.0000 0.0000
vn 0.0000 0.0000 1.0000
vn 1.0000 0.0000 -0.0000
vn -0.0000 -0.0000 -1.0000
usemtl Material.002
s 1
f 1//1 2//1 3//1 4//1
f 5//2 6//2 7//2 8//2
f 1//3 5//3 8//3 2//3
f 2//4 8//4 7//4 3//4
f 3//5 7//5 6//5 4//5
f 5//6 1//6 4//6 6//6
o Text_Text.001
v 1.825987 -0.318073 1.283096
v 0.632755 -0.318073 -1.001506
v 0.814650 -0.318073 -1.314366
v 0.432670 -0.318073 -1.314366
v 0.625479 -0.318073 -1.001506
v -0.582304 -0.318073 1.283096
v 1.072941 -0.318073 0.209915
v 0.192569 -0.318073 0.209915
v 1.182078 -0.318073 0.500947
v 0.083432 -0.318073 0.500947
v 1.473110 -0.318073 1.283096
v -0.200324 -0.318073 1.283096
v -1.683375 -0.318073 -0.640546
v -1.764621 -0.318073 -0.641354
v -1.723392 -0.318073 -0.641758
v -1.764621 -0.318073 -0.313943
v -1.644571 -0.318073 -0.637716
v -1.606979 -0.318073 -0.633270
v -1.570600 -0.318073 -0.627207
v -1.535434 -0.318073 -0.619527
v -1.501480 -0.318073 -0.610230
v -1.468739 -0.318073 -0.599316
v -1.437211 -0.318073 -0.586785
v -0.775113 -0.318073 1.283096
v -1.066144 -0.318073 -0.597699
v -0.775113 -0.318073 -0.597699
v -1.066144 -0.318073 -0.201168
v -1.406895 -0.318073 -0.572638
v -1.377791 -0.318073 -0.556874
v -1.349901 -0.318073 -0.539493
v -1.322970 -0.318073 -0.520470
v -1.296747 -0.318073 -0.499779
v -1.271231 -0.318073 -0.477421
v -1.246423 -0.318073 -0.453396
v -1.222322 -0.318073 -0.427703
v -1.198928 -0.318073 -0.400343
v -1.176242 -0.318073 -0.371316
v -1.154263 -0.318073 -0.340621
v -1.132991 -0.318073 -0.308259
v -1.734078 -0.318073 -0.313589
v -1.704293 -0.318073 -0.312528
v -1.675266 -0.318073 -0.310760
v -1.646996 -0.318073 -0.308284
v -1.619484 -0.318073 -0.305101
v -1.112427 -0.318073 -0.274230
v -1.592731 -0.318073 -0.301210
v -1.566735 -0.318073 -0.296612
v -1.541497 -0.318073 -0.291307
v -1.517017 -0.318073 -0.285294
v -1.493295 -0.318073 -0.278574
v -1.470330 -0.318073 -0.271147
v -1.092570 -0.318073 -0.238532
v -1.448124 -0.318073 -0.263012
v -1.426651 -0.318073 -0.254196
v -1.405885 -0.318073 -0.244722
v -1.385825 -0.318073 -0.234591
v -1.073420 -0.318073 -0.201168
v -1.366474 -0.318073 -0.223804
v -1.347830 -0.318073 -0.212360
v -1.329893 -0.318073 -0.200258
v -1.127080 -0.318073 0.101371
v -1.134052 -0.318073 0.078900
v -1.141631 -0.318073 0.057009
v -1.149816 -0.318073 0.035700
v -1.158608 -0.318073 0.014971
v -1.168006 -0.318073 -0.005176
v -1.178010 -0.318073 -0.024742
v -1.188620 -0.318073 -0.043728
v -1.199837 -0.318073 -0.062132
v -1.211660 -0.318073 -0.079955
v -1.224090 -0.318073 -0.097197
v -1.237126 -0.318073 -0.113858
v -1.250819 -0.318073 -0.129900
v -1.265219 -0.318073 -0.145286
v -1.280326 -0.318073 -0.160014
v -1.296141 -0.318073 -0.174086
v -1.312663 -0.318073 -0.187500
v -1.120713 -0.318073 0.124424
v -1.114902 -0.318073 0.148058
v -1.109597 -0.318073 0.172273
v -1.104797 -0.318073 0.197068
v -1.100502 -0.318073 0.222445
v -1.096713 -0.318073 0.248403
v -1.093429 -0.318073 0.274942
v -1.090650 -0.318073 0.302062
v -1.088376 -0.318073 0.329763
v -1.086607 -0.318073 0.358046
v -1.085344 -0.318073 0.386909
v -1.084587 -0.318073 0.416353
v -1.084334 -0.318073 0.446378
v -1.084334 -0.318073 1.283096
vn 0.0000 -1.0000 0.0000
vn 0.0000 -1.0000 0.0003
usemtl Material.001
s 1
f 9//7 10//7 11//7
f 10//7 12//7 11//7
f 10//7 13//7 12//7
f 13//7 14//7 12//7
f 9//7 15//7 10//7
f 16//7 14//7 13//7
f 9//7 17//7 15//7
f 17//7 16//7 15//7
f 17//7 18//7 16//7
f 18//7 14//7 16//7
f 9//7 19//7 17//7
f 20//7 14//7 18//7
f 21//7 22//7 23//7
f 21//7 24//7 22//7
f 25//7 24//7 21//7
f 26//7 24//7 25//7
f 27//7 24//7 26//7
f 28//7 24//7 27//7
f 29//7 24//7 28//7
f 30//7 24//7 29//7
f 31//7 24//7 30//7
f 32//7 33//7 34//7
f 32//7 35//7 33//7
f 36//7 24//7 31//7
f 37//7 24//7 36//7
f 38//7 24//7 37//7
f 39//7 24//7 38//7
f 40//7 24//7 39//7
f 41//7 24//7 40//7
f 42//7 24//7 41//7
f 43//7 24//7 42//7
f 44//7 24//7 43//7
f 45//7 24//7 44//7
f 46//7 24//7 45//7
f 47//7 24//7 46//7
f 47//7 48//8 24//7
f 47//7 49//7 48//8
f 47//7 50//7 49//7
f 47//7 51//7 50//7
f 47//7 52//7 51//7
f 53//7 52//7 47//7
f 53//7 54//7 52//7
f 53//7 55//7 54//7
f 53//7 56//7 55//7
f 53//7 57//7 56//7
f 53//7 58//7 57//7
f 53//7 59//7 58//7
f 60//7 59//7 53//7
f 60//7 61//7 59//7
f 60//7 62//7 61//7
f 60//7 63//7 62//7
f 60//7 64//7 63//7
f 65//7 64//7 60//7
f 65//7 66//7 64//7
f 65//7 67//7 66//7
f 65//7 68//7 67//7
f 32//7 65//7 35//7
f 32//7 69//7 65//7
f 69//7 70//7 65//7
f 70//7 71//7 65//7
f 71//7 72//7 65//7
f 72//7 73//7 65//7
f 73//7 74//7 65//7
f 74//7 75//7 65//7
f 75//7 76//7 65//7
f 76//7 77//7 65//7
f 77//7 78//7 65//7
f 78//7 79//7 65//7
f 79//7 80//7 65//7
f 80//7 81//7 65//7
f 81//7 82//7 65//7
f 82//7 83//7 65//7
f 83//7 84//7 65//7
f 84//7 85//7 65//7
f 85//7 68//7 65//7
f 32//7 86//7 69//7
f 32//7 87//7 86//7
f 32//7 88//7 87//7
f 32//7 89//7 88//7
f 32//7 90//7 89//7
f 32//7 91//7 90//7
f 32//7 92//7 91//7
f 32//7 93//7 92//7
f 32//7 94//7 93//7
f 32//7 95//7 94//7
f 32//7 96//7 95//7
f 32//7 97//7 96//7
f 32//7 98//7 97//7
f 32//7 99//7 98//7
